G04 ================== begin FILE IDENTIFICATION RECORD ==================*
G04 Layout Name:  f:/projects/bobsled/pcb-layout/bobsled.brd*
G04 Film Name:    bobsled-SOLDERMASKTOP-v1*
G04 File Format:  Gerber RS274X*
G04 File Origin:  Cadence Allegro 17.2-S025*
G04 Origin Date:  Mon Jul 19 18:57:53 2021*
G04 *
G04 Layer:  PIN/SOLDERMASK_TOP*
G04 Layer:  PACKAGE GEOMETRY/SOLDERMASK_TOP*
G04 Layer:  BOARD GEOMETRY/DESIGN_OUTLINE*
G04 *
G04 Offset:    (0.0000 0.0000)*
G04 Mirror:    No*
G04 Mode:      Positive*
G04 Rotation:  0*
G04 FullContactRelief:  No*
G04 UndefLineWidth:     0.1000*
G04 ================== end FILE IDENTIFICATION RECORD ====================*
%FSLAX55Y55*MOMM*%
%IR0*IPPOS*OFA0.00000B0.00000*MIA0B0*SFA1.00000B1.00000*%
%ADD33R,5.X.5*%
%AMMACRO30*
4,1,5,-.6,.6,
-.6,-.296,
-.296,-.6,
.6,-.6,
.6,.6,
-.6,.6,
0.0*
%
%ADD30MACRO30*%
%AMMACRO29*
4,1,5,-.6,.296,
-.6,-.6,
.6,-.6,
.6,.6,
-.296,.6,
-.6,.296,
0.0*
%
%ADD29MACRO29*%
%AMMACRO14*
4,1,5,.6,-.6,
-.6,-.6,
-.6,.6,
.296,.6,
.6,.296,
.6,-.6,
0.0*
%
%ADD14MACRO14*%
%ADD11C,.5*%
%ADD32P,1.045158X8X22.5*%
%ADD12C,.75*%
%AMMACRO25*
4,1,44,.175,.2012,
.175,-.2012,
.174353,-.20879,
.172398,-.216153,
.169194,-.223064,
.164838,-.229314,
.159464,-.234713,
.153234,-.239096,
.146337,-.242331,
.138983,-.244319,
.131396,-.245,
.1312,-.245,
-.1312,-.245,
-.13879,-.244353,
-.146153,-.242398,
-.153064,-.239194,
-.159314,-.234838,
-.164713,-.229464,
-.169096,-.223234,
-.172331,-.216337,
-.174319,-.208983,
-.175,-.201396,
-.175,-.2012,
-.175,.2012,
-.174353,.20879,
-.172398,.216153,
-.169194,.223064,
-.164838,.229314,
-.159464,.234713,
-.153234,.239096,
-.146337,.242331,
-.138983,.244319,
-.131396,.245,
-.1312,.245,
.1312,.245,
.13879,.244353,
.146153,.242398,
.153064,.239194,
.159314,.234838,
.164713,.229464,
.169096,.223234,
.172331,.216337,
.174319,.208983,
.175,.201396,
.175,.2012,
0.0*
%
%ADD25MACRO25*%
%AMMACRO26*
4,1,44,.2012,-.175,
-.2012,-.175,
-.20879,-.174353,
-.216153,-.172398,
-.223064,-.169194,
-.229314,-.164838,
-.234713,-.159464,
-.239096,-.153234,
-.242331,-.146337,
-.244319,-.138983,
-.245,-.131396,
-.245,-.1312,
-.245,.1312,
-.244353,.13879,
-.242398,.146153,
-.239194,.153064,
-.234838,.159314,
-.229464,.164713,
-.223234,.169096,
-.216337,.172331,
-.208983,.174319,
-.201396,.175,
-.2012,.175,
.2012,.175,
.20879,.174353,
.216153,.172398,
.223064,.169194,
.229314,.164838,
.234713,.159464,
.239096,.153234,
.242331,.146337,
.244319,.138983,
.245,.131396,
.245,.1312,
.245,-.1312,
.244353,-.13879,
.242398,-.146153,
.239194,-.153064,
.234838,-.159314,
.229464,-.164713,
.223234,-.169096,
.216337,-.172331,
.208983,-.174319,
.201396,-.175,
.2012,-.175,
0.0*
%
%ADD26MACRO26*%
%ADD34R,5.X1.*%
%ADD10R,2.5X2.*%
%ADD19R,.3X.25*%
%ADD20R,.3X.35*%
%ADD31C,3.1*%
%ADD17C,2.3*%
%ADD18C,3.4*%
%ADD28C,2.6*%
%ADD35C,2.8*%
%ADD23R,.35X.79*%
%ADD16R,1.187X1.47*%
%ADD22R,.79X.35*%
%ADD15R,1.47X1.187*%
%ADD21R,1.27X1.27*%
%ADD13R,.9652X.8128*%
%AMMACRO27*
4,1,44,-.175,-.2012,
-.175,.2012,
-.174353,.20879,
-.172398,.216153,
-.169194,.223064,
-.164838,.229314,
-.159464,.234713,
-.153234,.239096,
-.146337,.242331,
-.138983,.244319,
-.131396,.245,
-.1312,.245,
.1312,.245,
.13879,.244353,
.146153,.242398,
.153064,.239194,
.159314,.234838,
.164713,.229464,
.169096,.223234,
.172331,.216337,
.174319,.208983,
.175,.201396,
.175,.2012,
.175,-.2012,
.174353,-.20879,
.172398,-.216153,
.169194,-.223064,
.164838,-.229314,
.159464,-.234713,
.153234,-.239096,
.146337,-.242331,
.138983,-.244319,
.131396,-.245,
.1312,-.245,
-.1312,-.245,
-.13879,-.244353,
-.146153,-.242398,
-.153064,-.239194,
-.159314,-.234838,
-.164713,-.229464,
-.169096,-.223234,
-.172331,-.216337,
-.174319,-.208983,
-.175,-.201396,
-.175,-.2012,
0.0*
%
%ADD27MACRO27*%
%AMMACRO24*
4,1,44,-.2012,.175,
.2012,.175,
.20879,.174353,
.216153,.172398,
.223064,.169194,
.229314,.164838,
.234713,.159464,
.239096,.153234,
.242331,.146337,
.244319,.138983,
.245,.131396,
.245,.1312,
.245,-.1312,
.244353,-.13879,
.242398,-.146153,
.239194,-.153064,
.234838,-.159314,
.229464,-.164713,
.223234,-.169096,
.216337,-.172331,
.208983,-.174319,
.201396,-.175,
.2012,-.175,
-.2012,-.175,
-.20879,-.174353,
-.216153,-.172398,
-.223064,-.169194,
-.229314,-.164838,
-.234713,-.159464,
-.239096,-.153234,
-.242331,-.146337,
-.244319,-.138983,
-.245,-.131396,
-.245,-.1312,
-.245,.1312,
-.244353,.13879,
-.242398,.146153,
-.239194,.153064,
-.234838,.159314,
-.229464,.164713,
-.223234,.169096,
-.216337,.172331,
-.208983,.174319,
-.201396,.175,
-.2012,.175,
0.0*
%
%ADD24MACRO24*%
%ADD36C,.1*%
G75*
%LPD*%
G75*
G36*
G01X-155410Y125000D02*
X-245000D01*
Y245000D01*
X-125000D01*
Y155410D01*
X-155410Y125000D01*
G37*
G54D10*
X-625000Y-4826000D03*
Y-4572000D03*
Y-4064000D03*
Y-4318000D03*
Y-3302000D03*
Y-3810000D03*
Y-2540000D03*
Y-2794000D03*
Y-3048000D03*
Y-2286000D03*
Y-1270000D03*
Y-1524000D03*
Y-1778000D03*
Y-762000D03*
Y-1016000D03*
Y254000D03*
Y0D03*
Y-254000D03*
Y762000D03*
Y1270000D03*
Y1016000D03*
Y2792000D03*
Y3046000D03*
Y3300000D03*
X625000Y-4572000D03*
Y-4826000D03*
Y-4064000D03*
Y-4318000D03*
Y-3302000D03*
Y-3810000D03*
Y-2540000D03*
Y-2794000D03*
Y-3048000D03*
Y-2286000D03*
Y-1270000D03*
Y-1524000D03*
Y-1778000D03*
Y-762000D03*
Y-1016000D03*
Y254000D03*
Y0D03*
Y-254000D03*
Y762000D03*
Y1270000D03*
Y1016000D03*
Y2792000D03*
Y3046000D03*
Y3300000D03*
G54D20*
X75000Y-4377500D03*
X25000D03*
X-25000D03*
X-75000D03*
X-25000Y-4222500D03*
X25000D03*
X75000D03*
X-75000D03*
G54D11*
X-250000Y-5100000D03*
X-350000D03*
X-450000D03*
X-550000D03*
X-650000D03*
X-250000Y-3575000D03*
X-350000D03*
X-450000D03*
X-550000D03*
X-650000D03*
X-250000Y-2025000D03*
X-350000D03*
X-450000D03*
X-550000D03*
X-650000D03*
X-250000Y-500000D03*
X-350000D03*
X-450000D03*
X-550000D03*
X-650000D03*
X-250000Y500000D03*
X-350000D03*
X-450000D03*
X-550000D03*
X-650000D03*
X-250000Y1525000D03*
X-350000D03*
X-450000D03*
X-550000D03*
X-650000D03*
X450000Y-5100000D03*
X350000D03*
X250000D03*
X150000D03*
X50000D03*
X-50000D03*
X-150000D03*
X450000Y-3575000D03*
X350000D03*
X250000D03*
X150000D03*
X50000D03*
X-50000D03*
X-150000D03*
X450000Y-2025000D03*
X350000D03*
X250000D03*
X150000D03*
X50000D03*
X-50000D03*
X-150000D03*
X450000Y-500000D03*
X350000D03*
X250000D03*
X150000D03*
X50000D03*
X-50000D03*
X-150000D03*
X450000Y500000D03*
X350000D03*
X250000D03*
X150000D03*
X50000D03*
X-50000D03*
X-150000D03*
X450000Y1525000D03*
X350000D03*
X250000D03*
X150000D03*
X50000D03*
X-50000D03*
X-150000D03*
X650000Y-5100000D03*
X550000D03*
X650000Y-3575000D03*
X550000D03*
X650000Y-2025000D03*
X550000D03*
X650000Y-500000D03*
X550000D03*
X650000Y500000D03*
X550000D03*
X650000Y1525000D03*
X550000D03*
G54D21*
X255000Y-4023360D03*
Y-3810000D03*
X340000Y-2285000D03*
Y-2498360D03*
X350000Y-830000D03*
Y-1043360D03*
G54D12*
X-750000Y-5100000D03*
Y-3575000D03*
Y-2025000D03*
Y-500000D03*
Y500000D03*
Y1525000D03*
X750000Y-5100000D03*
Y-3575000D03*
Y-2025000D03*
Y-500000D03*
Y500000D03*
Y1525000D03*
G54D30*
X185000Y185000D03*
G54D13*
X-235000Y-950000D03*
Y-807760D03*
X-150000Y-4742240D03*
X150000D03*
X-150000Y-4600000D03*
X150000D03*
X-75000Y-3242240D03*
X150000D03*
X-75000Y-3100000D03*
X150000D03*
X-45000Y-950000D03*
Y-807760D03*
X145000Y-950000D03*
Y-807760D03*
G54D22*
X136500Y-2800000D03*
Y-2850000D03*
X-136500D03*
Y-2800000D03*
Y-2750000D03*
X136500Y-2700000D03*
Y-2750000D03*
X-136500Y-2700000D03*
G54D31*
X0Y1015000D03*
G54D23*
X50000Y-2890000D03*
X0D03*
X-50000D03*
Y-2660000D03*
X0D03*
X50000D03*
G54D32*
X-172000Y843000D03*
X172000D03*
X-172000Y1187000D03*
X172000D03*
G54D14*
X-185000Y-185000D03*
G54D24*
X126000Y-1375000D03*
Y-1175000D03*
Y-1225000D03*
Y-1275000D03*
Y-1325000D03*
G54D15*
X-196900Y804000D03*
Y1226000D03*
X196900Y804000D03*
Y1226000D03*
G54D33*
X0Y2933500D03*
Y3158500D03*
G54D16*
X-211000Y818100D03*
Y1211900D03*
X211000Y818100D03*
Y1211900D03*
G54D34*
X0Y3046000D03*
G54D25*
X50000Y-1401000D03*
X0D03*
X-50000D03*
G54D35*
X495000Y3541000D03*
G54D17*
X-495000Y2551000D03*
G54D26*
X-126000Y-1375000D03*
Y-1325000D03*
Y-1275000D03*
Y-1225000D03*
Y-1175000D03*
G54D36*
G01X-750000Y-5500000D02*
X750000D01*
Y4475000D01*
X-750000D01*
Y-5500000D01*
G54D27*
X-50000Y-1149000D03*
X0D03*
X50000D03*
G54D18*
X-340000Y4016000D03*
X340000Y2076000D03*
G54D28*
X0Y0D03*
G54D19*
X77500Y-4275000D03*
Y-4325000D03*
X-77500D03*
Y-4275000D03*
G54D29*
X185000Y-185000D03*
M02*
