G04 ================== begin FILE IDENTIFICATION RECORD ==================*
G04 Layout Name:  f:/projects/bobsled/pcb-layout/bobsled.brd*
G04 Film Name:    bobsled-TOP-v1*
G04 File Format:  Gerber RS274X*
G04 File Origin:  Cadence Allegro 17.2-S025*
G04 Origin Date:  Mon Jul 19 18:57:53 2021*
G04 *
G04 Layer:  BOARD GEOMETRY/DESIGN_OUTLINE*
G04 Layer:  BOARD GEOMETRY/CUTOUT*
G04 Layer:  ETCH/TOP*
G04 Layer:  PIN/TOP*
G04 Layer:  VIA CLASS/TOP*
G04 *
G04 Offset:    (0.0000 0.0000)*
G04 Mirror:    No*
G04 Mode:      Positive*
G04 Rotation:  0*
G04 FullContactRelief:  No*
G04 UndefLineWidth:     0.1000*
G04 ================== end FILE IDENTIFICATION RECORD ====================*
%FSLAX55Y55*MOMM*%
%IR0*IPPOS*OFA0.00000B0.00000*MIA0B0*SFA1.00000B1.00000*%
%AMMACRO36*
4,1,6,-1.25,-1.,
.85,-1.,
1.25,-.6,
1.25,.6,
.85,1.,
-1.25,1.,
-1.25,-1.,
0.0*
%
%ADD36MACRO36*%
%ADD33R,5.X.5*%
%ADD32P,1.045158X8X22.5*%
%AMMACRO14*
4,1,5,-.735,.735,
.735,.735,
.735,-.452,
.452,-.735,
-.735,-.735,
-.735,.735,
0.0*
%
%ADD14MACRO14*%
%AMMACRO30*
4,1,5,-.4522,-.735,
-.735,-.452,
-.735,.735,
.735,.735,
.735,-.735,
-.4522,-.735,
0.0*
%
%ADD30MACRO30*%
%AMMACRO29*
4,1,5,.735,-.735,
-.735,-.735,
-.735,.452,
-.452,.735,
.735,.735,
.735,-.735,
0.0*
%
%ADD29MACRO29*%
%AMMACRO13*
4,1,5,-.735,.735,
.452,.735,
.735,.452,
.735,-.735,
-.735,-.735,
-.735,.735,
0.0*
%
%ADD13MACRO13*%
%ADD11C,.6096*%
%AMMACRO25*
4,1,44,.175,.2012,
.175,-.2012,
.174353,-.20879,
.172398,-.216153,
.169194,-.223064,
.164838,-.229314,
.159464,-.234713,
.153234,-.239096,
.146337,-.242331,
.138983,-.244319,
.131396,-.245,
.1312,-.245,
-.1312,-.245,
-.13879,-.244353,
-.146153,-.242398,
-.153064,-.239194,
-.159314,-.234838,
-.164713,-.229464,
-.169096,-.223234,
-.172331,-.216337,
-.174319,-.208983,
-.175,-.201396,
-.175,-.2012,
-.175,.2012,
-.174353,.20879,
-.172398,.216153,
-.169194,.223064,
-.164838,.229314,
-.159464,.234713,
-.153234,.239096,
-.146337,.242331,
-.138983,.244319,
-.131396,.245,
-.1312,.245,
.1312,.245,
.13879,.244353,
.146153,.242398,
.153064,.239194,
.159314,.234838,
.164713,.229464,
.169096,.223234,
.172331,.216337,
.174319,.208983,
.175,.201396,
.175,.2012,
0.0*
%
%ADD25MACRO25*%
%AMMACRO26*
4,1,44,.2012,-.175,
-.2012,-.175,
-.20879,-.174353,
-.216153,-.172398,
-.223064,-.169194,
-.229314,-.164838,
-.234713,-.159464,
-.239096,-.153234,
-.242331,-.146337,
-.244319,-.138983,
-.245,-.131396,
-.245,-.1312,
-.245,.1312,
-.244353,.13879,
-.242398,.146153,
-.239194,.153064,
-.234838,.159314,
-.229464,.164713,
-.223234,.169096,
-.216337,.172331,
-.208983,.174319,
-.201396,.175,
-.2012,.175,
.2012,.175,
.20879,.174353,
.216153,.172398,
.223064,.169194,
.229314,.164838,
.234713,.159464,
.239096,.153234,
.242331,.146337,
.244319,.138983,
.245,.131396,
.245,.1312,
.245,-.1312,
.244353,-.13879,
.242398,-.146153,
.239194,-.153064,
.234838,-.159314,
.229464,-.164713,
.223234,-.169096,
.216337,-.172331,
.208983,-.174319,
.201396,-.175,
.2012,-.175,
0.0*
%
%ADD26MACRO26*%
%ADD34R,5.X1.*%
%ADD19R,.3X.25*%
%AMMACRO10*
4,1,6,1.25,1.,
-.85,1.,
-1.25,.6,
-1.25,-.6,
-.85,-1.,
1.25,-1.,
1.25,1.,
0.0*
%
%ADD10MACRO10*%
%ADD31C,3.*%
%ADD20R,.3X.35*%
%ADD17C,2.3*%
%ADD28C,2.5*%
%ADD18C,3.4*%
%ADD35C,2.8*%
%ADD23R,.35X.79*%
%ADD16R,1.187X1.47*%
%ADD22R,.79X.35*%
%ADD15R,1.47X1.187*%
%ADD21R,1.27X1.27*%
%ADD12R,.9652X.8128*%
%AMMACRO27*
4,1,44,-.175,-.2012,
-.175,.2012,
-.174353,.20879,
-.172398,.216153,
-.169194,.223064,
-.164838,.229314,
-.159464,.234713,
-.153234,.239096,
-.146337,.242331,
-.138983,.244319,
-.131396,.245,
-.1312,.245,
.1312,.245,
.13879,.244353,
.146153,.242398,
.153064,.239194,
.159314,.234838,
.164713,.229464,
.169096,.223234,
.172331,.216337,
.174319,.208983,
.175,.201396,
.175,.2012,
.175,-.2012,
.174353,-.20879,
.172398,-.216153,
.169194,-.223064,
.164838,-.229314,
.159464,-.234713,
.153234,-.239096,
.146337,-.242331,
.138983,-.244319,
.131396,-.245,
.1312,-.245,
-.1312,-.245,
-.13879,-.244353,
-.146153,-.242398,
-.153064,-.239194,
-.159314,-.234838,
-.164713,-.229464,
-.169096,-.223234,
-.172331,-.216337,
-.174319,-.208983,
-.175,-.201396,
-.175,-.2012,
0.0*
%
%ADD27MACRO27*%
%AMMACRO24*
4,1,44,-.2012,.175,
.2012,.175,
.20879,.174353,
.216153,.172398,
.223064,.169194,
.229314,.164838,
.234713,.159464,
.239096,.153234,
.242331,.146337,
.244319,.138983,
.245,.131396,
.245,.1312,
.245,-.1312,
.244353,-.13879,
.242398,-.146153,
.239194,-.153064,
.234838,-.159314,
.229464,-.164713,
.223234,-.169096,
.216337,-.172331,
.208983,-.174319,
.201396,-.175,
.2012,-.175,
-.2012,-.175,
-.20879,-.174353,
-.216153,-.172398,
-.223064,-.169194,
-.229314,-.164838,
-.234713,-.159464,
-.239096,-.153234,
-.242331,-.146337,
-.244319,-.138983,
-.245,-.131396,
-.245,-.1312,
-.245,.1312,
-.244353,.13879,
-.242398,.146153,
-.239194,.153064,
-.234838,.159314,
-.229464,.164713,
-.223234,.169096,
-.216337,.172331,
-.208983,.174319,
-.201396,.175,
-.2012,.175,
0.0*
%
%ADD24MACRO24*%
%ADD37C,.3*%
%ADD38C,.4*%
%ADD39C,.5*%
%ADD40C,.25*%
%ADD41C,.35*%
%ADD42C,.75*%
%ADD43C,1.5*%
%ADD44C,.1*%
G75*
%LPD*%
G75*
G54D10*
X-625000Y-4826000D03*
Y-4572000D03*
Y-4064000D03*
Y-4318000D03*
Y-3302000D03*
Y-3810000D03*
Y-2540000D03*
Y-2794000D03*
Y-3048000D03*
Y-2286000D03*
Y-1270000D03*
Y-1524000D03*
Y-1778000D03*
Y-762000D03*
Y-1016000D03*
Y254000D03*
Y0D03*
Y-254000D03*
Y762000D03*
Y1270000D03*
Y1016000D03*
Y2792000D03*
Y3046000D03*
Y3300000D03*
G54D20*
X75000Y-4377500D03*
X25000D03*
X-25000D03*
X-75000D03*
X-25000Y-4222500D03*
X25000D03*
X75000D03*
X-75000D03*
G54D11*
X-250000Y-3145000D03*
X-225000Y-1070000D03*
X0Y-4655000D03*
X-145000Y-4110000D03*
X75000Y-4475000D03*
X360000Y-4390000D03*
X-170000Y-4470000D03*
X75000Y-4090000D03*
X150000Y-3345000D03*
X420000Y-3810000D03*
X136500Y-2966500D03*
X-50000Y-3006660D03*
X160000Y-2425000D03*
X-50000Y-1585000D03*
X0Y-670000D03*
X-50000Y-1070000D03*
G54D12*
X-235000Y-950000D03*
Y-807760D03*
X-150000Y-4742240D03*
X150000D03*
X-150000Y-4600000D03*
X150000D03*
X-75000Y-3242240D03*
X150000D03*
X-75000Y-3100000D03*
X150000D03*
X-45000Y-950000D03*
Y-807760D03*
X145000Y-950000D03*
Y-807760D03*
G54D21*
X255000Y-4023360D03*
Y-3810000D03*
X340000Y-2285000D03*
Y-2498360D03*
X350000Y-830000D03*
Y-1043360D03*
G54D30*
X197000Y197000D03*
G54D40*
G01X-625000Y-4064000D02*
X-361000D01*
X-150000Y-4275000D01*
X-77500D01*
G01X77500D02*
X145000D01*
Y-4325000D01*
G01D02*
X77500D01*
G01X-170000Y-4470000D02*
Y-4380000D01*
X-115000Y-4325000D01*
X-77500D01*
G01X-150000Y-4600000D02*
Y-4490000D01*
X-170000Y-4470000D01*
G01X75000Y-4222500D02*
Y-4090000D01*
G54D22*
X136500Y-2800000D03*
Y-2850000D03*
X-136500D03*
Y-2800000D03*
Y-2750000D03*
X136500Y-2700000D03*
Y-2750000D03*
X-136500Y-2700000D03*
G54D31*
X0Y1015000D03*
G54D13*
X-197000Y-197000D03*
G54D41*
G01X-240000Y-1225000D02*
X-325000Y-1140000D01*
Y-860000D01*
X-423000Y-762000D01*
X-625000D01*
G01X-290000Y-1275000D02*
X-380000Y-1185000D01*
Y-1169860D01*
X-385000Y-1164860D01*
Y-1055000D01*
X-424000Y-1016000D01*
X-625000D01*
G01X-330000Y-1325000D02*
X-385000Y-1270000D01*
X-625000D01*
G01X-240000Y-1375000D02*
X-389000Y-1524000D01*
X-625000D01*
G01X50000Y-1550000D02*
X278000Y-1778000D01*
X625000D01*
G01X-185000Y-1175000D02*
X-225000Y-1135000D01*
Y-1070000D01*
G54D23*
X50000Y-2890000D03*
X0D03*
X-50000D03*
Y-2660000D03*
X0D03*
X50000D03*
G54D14*
X-197000Y197000D03*
G54D32*
X-172000Y843000D03*
X172000D03*
X-172000Y1187000D03*
X172000D03*
G54D42*
G01X-235000Y-950000D02*
X-225000Y-960000D01*
Y-1070000D01*
G01X-235000Y-807760D02*
X-45000D01*
G01X-625000Y762000D02*
X-253000D01*
X-172000Y843000D01*
G01X-625000Y1270000D02*
X-255000D01*
G01D02*
X-172000Y1187000D01*
G01X-255000Y1270000D02*
X-210000Y1315000D01*
X121900D01*
X196900Y1240000D01*
Y1226000D01*
G01X0Y3046000D02*
X-625000D01*
G01X392000Y-4572000D02*
X145000Y-4325000D01*
G01X255000Y-4023360D02*
Y-4215000D01*
X145000Y-4325000D01*
G01X340000Y-2498360D02*
Y-2940000D01*
X445000Y-3045000D01*
X446800D01*
X449800Y-3048000D01*
X625000D01*
G01X340000Y-2285000D02*
X624000D01*
X625000Y-2286000D01*
G01X-45000Y-807760D02*
X145000D01*
G01X350000Y-830000D02*
X375000Y-805000D01*
X582000D01*
X625000Y-762000D01*
G01X-50000Y-1070000D02*
Y-955000D01*
X-45000Y-950000D01*
G01X0Y-670000D02*
X190000D01*
X350000Y-830000D01*
G01X197000Y197000D02*
X54000Y340000D01*
X-120000D01*
X-197000Y263000D01*
Y197000D01*
G01X197000Y-197000D02*
X44000Y-350000D01*
X-120000D01*
X-197000Y-273000D01*
Y-197000D01*
G01X625000Y762000D02*
X238900D01*
X196900Y804000D01*
G01D02*
X122900Y730000D01*
X-60000D01*
X-172000Y842000D01*
Y843000D01*
G01X625000Y1270000D02*
X240900D01*
X196900Y1226000D01*
G01X-194000D02*
X-196900D01*
G01X0Y3046000D02*
X625000D01*
G54D24*
X126000Y-1375000D03*
Y-1175000D03*
Y-1225000D03*
Y-1275000D03*
Y-1325000D03*
G54D15*
X-196900Y804000D03*
Y1226000D03*
X196900Y804000D03*
Y1226000D03*
G54D33*
X0Y2933500D03*
Y3158500D03*
G54D43*
G01X-197000Y197000D02*
X-320700D01*
X-377700Y254000D01*
X-625000D01*
G01X-197000Y-197000D02*
X-320700D01*
X-377700Y-254000D01*
X-625000D01*
G01X197000Y197000D02*
X320700D01*
X377700Y254000D01*
X625000D01*
G01X197000Y-197000D02*
X320700D01*
X377700Y-254000D01*
X625000D01*
G54D16*
X-211000Y818100D03*
Y1211900D03*
X211000Y818100D03*
Y1211900D03*
G54D34*
X0Y3046000D03*
G54D25*
X50000Y-1401000D03*
X0D03*
X-50000D03*
G54D44*
G01X-750000Y-5500000D02*
X750000D01*
Y4475000D01*
X-750000D01*
Y-5500000D01*
G54D35*
X495000Y3541000D03*
G54D17*
X-495000Y2551000D03*
G54D26*
X-126000Y-1375000D03*
Y-1325000D03*
Y-1275000D03*
Y-1225000D03*
Y-1175000D03*
G54D27*
X-50000Y-1149000D03*
X0D03*
X50000D03*
G54D18*
X-340000Y4016000D03*
X340000Y2076000D03*
G54D36*
X625000Y-4572000D03*
Y-4826000D03*
Y-4064000D03*
Y-4318000D03*
Y-3302000D03*
Y-3810000D03*
Y-2540000D03*
Y-2794000D03*
Y-3048000D03*
Y-2286000D03*
Y-1270000D03*
Y-1524000D03*
Y-1778000D03*
Y-762000D03*
Y-1016000D03*
Y254000D03*
Y0D03*
Y-254000D03*
Y762000D03*
Y1270000D03*
Y1016000D03*
Y2792000D03*
Y3046000D03*
Y3300000D03*
G54D37*
G01X-625000Y-3810000D02*
X-225000D01*
X-25000Y-4010000D01*
Y-4222500D01*
G01X-625000Y-2794000D02*
X-354000D01*
X-260000Y-2700000D01*
X-136500D01*
G01X-250000Y-3145000D02*
Y-2920000D01*
X-180000Y-2850000D01*
X-136500D01*
G01X-625000Y-2286000D02*
X-139000D01*
X0Y-2425000D01*
Y-2660000D01*
G01X-625000Y-2540000D02*
X-110000D01*
X-50000Y-2600000D01*
Y-2660000D01*
G01X-126000Y-1225000D02*
X-240000D01*
G01X-126000Y-1275000D02*
X-290000D01*
G01X-126000Y-1325000D02*
X-330000D01*
G01X-126000Y-1375000D02*
X-240000D01*
G01X-25000Y-4377500D02*
Y-4530000D01*
X0Y-4555000D01*
Y-4655000D01*
G01X-75000Y-4222500D02*
Y-4180000D01*
X-145000Y-4110000D01*
G01X75000Y-4475000D02*
Y-4377500D01*
G01X150000Y-4600000D02*
X142380D01*
X75000Y-4532620D01*
Y-4475000D01*
G01X136500Y-2800000D02*
X225000D01*
X260000Y-2835000D01*
Y-3200000D01*
X362000Y-3302000D01*
X625000D01*
G01X50000Y-2660000D02*
Y-2535000D01*
X160000Y-2425000D01*
G01X136500Y-2850000D02*
Y-2966500D01*
G01D02*
X150000Y-2980000D01*
Y-3100000D01*
G01X-50000Y-2890000D02*
Y-3006660D01*
G01X38860Y-3207060D02*
Y-2988860D01*
X0Y-2950000D01*
Y-2890000D01*
G01X50000Y-1401000D02*
Y-1550000D01*
G01X-126000Y-1175000D02*
X-185000D01*
G01X-50000Y-1401000D02*
Y-1585000D01*
G01X265000Y-1175000D02*
X126000D01*
G01X50000Y-1149000D02*
Y-1037380D01*
X137380Y-950000D01*
X145000D01*
G01X-50000Y-1149000D02*
Y-1070000D01*
G54D28*
X0Y0D03*
G54D19*
X77500Y-4275000D03*
Y-4325000D03*
X-77500D03*
Y-4275000D03*
G54D38*
G01X265000Y-1175000D02*
X245000Y-1155000D01*
Y-900140D01*
X152620Y-807760D01*
X145000D01*
G54D29*
X197000Y-197000D03*
G54D39*
G01X0Y2933500D02*
X-320800D01*
X-462300Y2792000D01*
X-625000D01*
G01X0Y3158500D02*
X-320800D01*
X-462300Y3300000D01*
X-625000D01*
G01X-150000Y-4742240D02*
X150000D01*
G01X392000Y-4572000D02*
X221760Y-4742240D01*
X150000D01*
G01X625000Y-4572000D02*
X392000D01*
G01X360000Y-4390000D02*
Y-4166300D01*
X462300Y-4064000D01*
X625000D01*
G01X150000Y-3242240D02*
Y-3345000D01*
G01X-75000Y-3242240D02*
X3680D01*
X38860Y-3207060D01*
G01X150000Y-3242240D02*
X74040D01*
X38860Y-3207060D01*
G01X625000Y-3810000D02*
X420000D01*
G01D02*
X255000D01*
G01X-50000Y-3006660D02*
X-75000Y-3031660D01*
Y-3100000D01*
G01X625000Y-1524000D02*
X429000D01*
X350000Y-1445000D01*
Y-1260000D01*
G01D02*
X265000Y-1175000D01*
G01X350000Y-1043360D02*
Y-1260000D01*
G01X0Y2933500D02*
X320800D01*
X462300Y2792000D01*
X625000D01*
G01X0Y3158500D02*
X320800D01*
X462300Y3300000D01*
X625000D01*
M02*
