G04 ================== begin FILE IDENTIFICATION RECORD ==================*
G04 Layout Name:  f:/projects/bobsled/pcb-layout/bobsled.brd*
G04 Film Name:    bobsled-BOTTOM-v1*
G04 File Format:  Gerber RS274X*
G04 File Origin:  Cadence Allegro 17.2-S025*
G04 Origin Date:  Mon Jul 19 18:57:53 2021*
G04 *
G04 Layer:  BOARD GEOMETRY/DESIGN_OUTLINE*
G04 Layer:  BOARD GEOMETRY/CUTOUT*
G04 Layer:  ETCH/BOTTOM*
G04 Layer:  PIN/BOTTOM*
G04 Layer:  VIA CLASS/BOTTOM*
G04 *
G04 Offset:    (0.0000 0.0000)*
G04 Mirror:    No*
G04 Mode:      Positive*
G04 Rotation:  0*
G04 FullContactRelief:  No*
G04 UndefLineWidth:     0.1000*
G04 ================== end FILE IDENTIFICATION RECORD ====================*
%FSLAX55Y55*MOMM*%
%IR0*IPPOS*OFA0.00000B0.00000*MIA0B0*SFA1.00000B1.00000*%
%AMMACRO17*
4,1,6,-1.25,-1.,
.85,-1.,
1.25,-.6,
1.25,.6,
.85,1.,
-1.25,1.,
-1.25,-1.,
0.0*
%
%ADD17MACRO17*%
%ADD11C,.6096*%
%AMMACRO10*
4,1,6,1.25,1.,
-.85,1.,
-1.25,.6,
-1.25,-.6,
-.85,-1.,
1.25,-1.,
1.25,1.,
0.0*
%
%ADD10MACRO10*%
%ADD15C,3.*%
%ADD12C,2.3*%
%ADD14C,2.5*%
%ADD13C,3.4*%
%ADD16C,2.8*%
%ADD18C,.3*%
%ADD19C,.5*%
%ADD20C,.25*%
%ADD21C,.35*%
%ADD22C,.1*%
G75*
%LPD*%
G75*
G54D10*
X-625000Y-4826000D03*
Y-4572000D03*
Y-4064000D03*
Y-4318000D03*
Y-3302000D03*
Y-3810000D03*
Y-2540000D03*
Y-2794000D03*
Y-3048000D03*
Y-2286000D03*
Y-1270000D03*
Y-1524000D03*
Y-1778000D03*
Y-762000D03*
Y-1016000D03*
Y254000D03*
Y0D03*
Y-254000D03*
Y762000D03*
Y1270000D03*
Y1016000D03*
Y2792000D03*
Y3046000D03*
Y3300000D03*
G54D20*
G01X75000Y-4090000D02*
X-407000Y-4572000D01*
X-625000D01*
G01X360000Y-4390000D02*
X200000Y-4550000D01*
X-90000D01*
X-170000Y-4470000D01*
G54D11*
X-250000Y-3145000D03*
X-225000Y-1070000D03*
X0Y-4655000D03*
X-145000Y-4110000D03*
X75000Y-4475000D03*
X360000Y-4390000D03*
X-170000Y-4470000D03*
X75000Y-4090000D03*
X150000Y-3345000D03*
X420000Y-3810000D03*
X136500Y-2966500D03*
X-50000Y-3006660D03*
X160000Y-2425000D03*
X-50000Y-1585000D03*
X0Y-670000D03*
X-50000Y-1070000D03*
G54D21*
G01X625000Y-1270000D02*
X450000D01*
X135000Y-1585000D01*
X-50000D01*
G54D12*
X-495000Y2551000D03*
G54D22*
G01X-750000Y-5500000D02*
X750000D01*
Y4475000D01*
X-750000D01*
Y-5500000D01*
G54D13*
X-340000Y4016000D03*
X340000Y2076000D03*
G54D14*
X0Y0D03*
G54D15*
Y1015000D03*
G54D16*
X495000Y3541000D03*
G54D17*
X625000Y-4572000D03*
Y-4826000D03*
Y-4064000D03*
Y-4318000D03*
Y-3302000D03*
Y-3810000D03*
Y-2540000D03*
Y-2794000D03*
Y-3048000D03*
Y-2286000D03*
Y-1270000D03*
Y-1524000D03*
Y-1778000D03*
Y-762000D03*
Y-1016000D03*
Y254000D03*
Y0D03*
Y-254000D03*
Y762000D03*
Y1270000D03*
Y1016000D03*
Y2792000D03*
Y3046000D03*
Y3300000D03*
G54D18*
G01X-145000Y-4110000D02*
X-353000Y-4318000D01*
X-625000D01*
G01X160000Y-2425000D02*
X-463000Y-3048000D01*
X-625000D01*
G01X0Y-4655000D02*
X225000D01*
X440000Y-4440000D01*
Y-4352800D01*
X474800Y-4318000D01*
X625000D01*
G01X-250000Y-3145000D02*
X220000D01*
X310000Y-3055000D01*
Y-2945000D01*
X461000Y-2794000D01*
X625000D01*
G54D19*
G01X75000Y-4475000D02*
X143180D01*
X335000Y-4283180D01*
Y-3895000D01*
X420000Y-3810000D01*
G01X625000Y-3048000D02*
X447000D01*
X150000Y-3345000D01*
G01X625000Y-2286000D02*
X424000D01*
X136500Y-2573500D01*
Y-2966500D01*
G01X625000Y-2540000D02*
X425000D01*
X235000Y-2730000D01*
Y-3000000D01*
X180000Y-3055000D01*
X-1660D01*
X-50000Y-3006660D01*
G01X-225000Y-1070000D02*
X-140000Y-1155000D01*
X140000D01*
X279000Y-1016000D01*
X625000D01*
G01X0Y-670000D02*
Y-1020000D01*
X-50000Y-1070000D01*
M02*
